<svg viewBox="102 102 411 104" fill="none" xmlns="http://www.w3.org/2000/svg">
<path d="M188.089 125.064C185.282 125.064 183.006 122.79 183.006 119.986V104.751H122.354V125.06H177.927C180.734 125.06 183.01 127.334 183.01 130.138V180.613C183.01 183.417 180.734 185.691 177.927 185.691H127.436C124.589 185.691 122.354 183.457 122.354 180.613L122.327 160.544C122.327 157.699 124.562 155.466 127.409 155.466H147.656C147.703 155.466 147.749 155.466 147.796 155.466C150.406 155.533 152.468 157.713 152.468 160.32V175.591H172.868V155.282H157.681C155.017 155.282 152.799 153.175 152.735 150.514C152.735 150.471 152.735 150.431 152.735 150.388V135.157H122.327V150.388C122.327 153.192 120.051 155.466 117.244 155.466H102L102.027 185.688H117.271C120.078 185.688 122.354 187.961 122.354 190.766V205.997H183.01V190.766C183.01 187.961 185.285 185.688 188.092 185.688H203.337V125.064H188.089Z" fill="#202020"/>
<path d="M240.284 182.395C236.472 178.906 234.564 174.393 234.564 168.857C234.564 163.322 236.388 159.192 240.044 155.983C243.696 152.775 248.976 150.928 255.879 150.448L270.693 149.366C272.216 149.206 273.342 148.745 274.064 147.98C274.786 147.219 275.147 145.954 275.147 144.191C275.147 140.742 273.981 138.175 271.655 136.489C269.326 134.806 266.235 133.961 262.382 133.961C258.289 133.961 255.074 134.863 252.748 136.669C250.419 138.475 249.056 141.059 248.655 144.428H236.131C236.933 137.53 239.583 132.295 244.08 128.726C248.575 125.157 254.717 123.371 262.506 123.371C270.696 123.371 277.018 125.377 281.473 129.387C285.93 133.4 288.156 139.537 288.156 147.797V174.75H293.095V185.821H287.674C280.851 185.821 277.319 182.172 277.078 174.87C275.23 179.043 272.46 182.208 268.768 184.375C265.075 186.542 260.738 187.624 255.762 187.624C249.26 187.624 244.1 185.878 240.288 182.389L240.284 182.395ZM270.516 172.469C273.767 169.341 275.391 165.251 275.391 160.196V157.91L258.289 159.111C251.141 159.672 247.569 162.68 247.569 168.136C247.569 171.104 248.491 173.351 250.339 174.873C252.184 176.399 254.753 177.16 258.045 177.16C263.104 177.16 267.257 175.598 270.509 172.466L270.516 172.469Z" fill="#202020"/>
<path d="M304.777 128.609C307.102 126.322 310.437 125.181 314.771 125.181H334.159V136.252H314.167V185.824H301.281V138.655C301.281 134.245 302.444 130.893 304.773 128.609H304.777Z" fill="#202020"/>
<path d="M350.66 183.657C346.085 181.01 342.53 177.261 340.003 172.406C337.474 167.555 336.211 161.919 336.211 155.499C336.211 149.079 337.474 143.446 340.003 138.592C342.533 133.741 346.085 129.988 350.66 127.341C355.238 124.693 360.534 123.371 366.555 123.371C374.341 123.371 380.804 125.598 385.943 130.048C391.079 134.499 394.09 140.618 394.976 148.398H382.09C381.446 144.228 379.701 140.859 376.851 138.291C374.001 135.724 370.529 134.442 366.432 134.442C361.373 134.442 357.279 136.368 354.148 140.218C351.017 144.067 349.45 149.162 349.45 155.499C349.45 161.836 351.034 166.931 354.208 170.78C357.38 174.63 361.493 176.556 366.552 176.556C370.726 176.556 374.338 175.254 377.392 172.646C380.443 170.042 382.247 166.57 382.812 162.24H395.577C394.775 170.022 391.741 176.199 386.485 180.769C381.225 185.343 374.582 187.627 366.552 187.627C360.531 187.627 355.231 186.302 350.656 183.657H350.66Z" fill="#202020"/>
<path d="M441.644 138.415C439.596 135.928 436.525 134.686 432.431 134.686C427.372 134.686 423.439 136.452 420.629 139.981C417.819 143.513 416.372 148.845 416.295 155.983V185.824H403.41V104.768H416.295V133.724C420.067 126.826 426.37 123.374 435.201 123.374C442.185 123.374 447.686 125.481 451.702 129.691C455.715 133.901 457.724 139.781 457.724 147.319V185.824H444.718V149.967C444.718 144.752 443.696 140.902 441.647 138.415H441.644Z" fill="#202020"/>
<path d="M469.526 115.178C467.999 113.776 467.237 111.949 467.237 109.702C467.237 107.455 468.019 105.713 469.586 104.227C471.15 102.745 473.058 102 475.307 102C477.556 102 479.46 102.741 481.028 104.227C482.595 105.713 483.377 107.536 483.377 109.702C483.377 111.869 482.611 113.776 481.088 115.178C479.561 116.583 477.636 117.281 475.307 117.281C472.978 117.281 471.05 116.58 469.526 115.178ZM468.801 125.18H481.686V185.824H468.801V125.18Z" fill="#202020"/>
<path d="M497.706 182.396C495.376 180.109 494.214 176.76 494.214 172.349V104.768H507.099V174.753H513V185.824H507.7C503.366 185.824 500.031 184.683 497.706 182.396Z" fill="#202020"/>
</svg>
