<?xml version="1.0" encoding="UTF-8"?>
<svg id="Layer_2" data-name="Layer 2" xmlns="http://www.w3.org/2000/svg" viewBox="0 0 586.34 163.24">
  <defs>
    <style>
      .cls-1 {
        fill-rule: evenodd;
      }
    </style>
  </defs>
  <g id="LSH_MP" data-name="LSH + MP">
    <g>
      <g>
        <path d="M128.1,86.56V11.78h-11.64v74.78h11.64Z"/>
        <path d="M161.01,87.84c6.09,0,12.93-2.99,16.02-8.01v6.73h11.54v-49.78h-11.54v6.73c-3.1-5.02-9.08-8.01-15.7-8.01-15.49,0-24.78,11.54-24.78,26.17s8.44,26.17,24.46,26.17ZM162.72,77.48c-9.08,0-14.53-6.73-14.53-15.81s5.45-15.81,14.53-15.81c9.93,0,14.74,7.26,14.74,15.81s-4.81,15.81-14.74,15.81Z"/>
        <path d="M223.27,76.73c-4.59,0-7.26-1.07-7.26-9.72v-20.51h11.43v-9.72h-11.43v-15.06h-11.64v15.06h-8.44v9.72h8.44v23.18c0,16.77,10.47,17.52,16.13,17.52,3.42,0,6.84-.32,8.65-.64v-10.26c-1.18.21-4.06.43-5.87.43Z"/>
        <path d="M242.84,29.62c5.13,0,8.65-3.85,8.65-8.65s-3.52-8.65-8.65-8.65-8.65,3.85-8.65,8.65,3.53,8.65,8.65,8.65ZM248.61,86.56v-49.78h-11.54v49.78h11.54Z"/>
        <path d="M283.33,76.73c-4.59,0-7.26-1.07-7.26-9.72v-20.51h11.43v-9.72h-11.43v-15.06h-11.64v15.06h-8.44v9.72h8.44v23.18c0,16.77,10.47,17.52,16.13,17.52,3.42,0,6.84-.32,8.65-.64v-10.26c-1.18.21-4.06.43-5.88.43Z"/>
        <path d="M315.08,87.84c7.16,0,12.39-2.88,15.38-8.23v6.94h11.64v-49.78h-11.64v28.1c0,7.16-3.21,13.03-12.07,13.03-7.59,0-10.15-4.7-10.15-12.71v-28.42h-11.64v31.3c0,13.35,7.58,19.76,18.48,19.76Z"/>
        <path d="M390.99,43.51c-3.1-5.02-9.08-8.01-15.7-8.01-15.49,0-24.78,11.54-24.78,26.17s8.44,26.17,24.46,26.17c6.09,0,12.93-2.99,16.02-8.01v6.73h11.54V11.78h-11.54v31.73ZM376.67,77.48c-9.08,0-14.53-6.73-14.53-15.81s5.45-15.81,14.53-15.81c9.94,0,14.74,7.26,14.74,15.81s-4.81,15.81-14.74,15.81Z"/>
        <path d="M459.76,59.1c0-13.99-9.61-23.61-23.82-23.61-15.17,0-25,10.26-25,26.17s9.72,26.17,25.42,26.17c11.97,0,21.37-6.52,22.86-15.81h-11.75c-1.92,3.85-5.34,5.66-11.11,5.66-8.44,0-13.57-4.27-13.89-12.18h36.96c.21-2.78.32-4.38.32-6.41ZM422.48,56.65c.11-7.05,5.02-11.96,13.25-11.96s12.5,4.27,12.61,11.96h-25.85Z"/>
        <path d="M474.06,87.41c5.02,0,9.08-4.17,9.08-9.08s-4.06-8.97-9.08-8.97-8.97,4.06-8.97,8.97,3.95,9.08,8.97,9.08Z"/>
        <path d="M511.67,87.84c12.07,0,19.66-5.77,19.66-15.49,0-7.05-4.49-12.18-11.54-14.21l-9.93-2.88c-4.59-1.28-6.2-3.1-6.2-5.77,0-2.99,2.99-5.13,7.16-5.13,5.45,0,8.65,2.46,8.65,6.62h11.43c0-9.61-7.48-15.49-19.66-15.49-11.11,0-19.12,6.2-19.12,14.64,0,7.05,3.95,12.07,10.9,13.99l9.93,2.67c5.34,1.39,6.52,3.1,6.52,5.88,0,3.53-2.78,5.88-7.16,5.88-5.98,0-10.15-2.99-10.15-7.26h-11.64c0,9.51,8.97,16.56,21.15,16.56Z"/>
        <path d="M568.18,35.49c-7.37,0-13.14,2.88-16.24,8.23V11.78h-11.64v74.78h11.64v-27.35c0-8.76,4.27-13.78,11.86-13.78,8.12,0,10.9,4.59,10.9,15.17v25.96h11.64v-31.3c0-13.03-6.2-19.76-18.16-19.76Z"/>
        <path d="M85.1,79.24l-8.9,26.53H24.92l8.91-26.53h51.28ZM56.81,0h-31.79L0,74.56h31.79L56.81,0Z"/>
      </g>
      <g>
        <g>
          <path class="cls-1" d="M480.33,127.41c-.53-.55-1.11-.99-1.75-1.3-1.11-.55-2.41-.82-3.85-.82-1.53,0-2.92.31-4.09.91-1.19.6-2.19,1.41-2.98,2.43-.8.99-1.39,2.17-1.81,3.47-.4,1.3-.6,2.65-.6,4.04s.18,2.87.53,4.18c.35,1.35.93,2.54,1.68,3.54.77,1.02,1.77,1.83,2.98,2.43,1.19.6,2.63.88,4.27.88,1.35,0,2.63-.29,3.85-.84.69-.31,1.28-.73,1.79-1.24v.97c.02,1.3-.29,2.41-.93,3.23-.62.8-1.59,1.19-2.98,1.19-.91,0-1.7-.18-2.37-.55-.62-.33-1.02-.93-1.24-1.81l-.11-.49h-6.81l.04.69c.09,1.28.46,2.41,1.08,3.34.62.91,1.41,1.66,2.34,2.23.91.55,1.95.99,3.05,1.26,1.11.27,2.19.4,3.25.4,2.45,0,4.44-.33,5.92-1.02,1.5-.69,2.65-1.53,3.47-2.52.8-.99,1.33-2.08,1.59-3.25.24-1.11.35-2.1.35-2.96v-19.96h-6.65v1.57h-.04ZM479.38,132.43c.33.53.57,1.13.71,1.81.15.71.22,1.48.22,2.28,0,.69-.09,1.35-.27,1.97-.18.6-.44,1.15-.8,1.61-.35.46-.77.82-1.3,1.11-.51.27-1.13.4-1.81.4-.75,0-1.37-.15-1.86-.46-.51-.31-.91-.73-1.22-1.24-.31-.51-.55-1.11-.69-1.77-.13-.69-.2-1.39-.2-2.1s.09-1.41.24-2.06c.15-.62.4-1.19.75-1.66.33-.46.75-.84,1.24-1.11.46-.27,1.06-.4,1.75-.4.82,0,1.5.15,2.01.44.53.29.93.69,1.26,1.19l-.04-.02Z"/>
          <path class="cls-1" d="M531.61,128.89c-.82-1.08-1.88-1.97-3.12-2.61-1.26-.66-2.76-.99-4.49-.99-1.37,0-2.63.27-3.78.82-.66.31-1.28.75-1.81,1.28v-1.55h-6.65v29.13h6.94v-8.8c.53.51,1.15.93,1.83,1.26,1.15.55,2.43.84,3.8.84,1.61,0,3.05-.31,4.27-.95,1.22-.62,2.23-1.48,3.05-2.54.8-1.04,1.41-2.25,1.81-3.6.4-1.33.57-2.74.57-4.18s-.2-2.98-.57-4.38c-.4-1.41-.99-2.67-1.81-3.76l-.04.02ZM527.08,136.87c0,.77-.07,1.57-.22,2.32-.15.71-.4,1.35-.73,1.88-.33.51-.77.93-1.3,1.26-.53.31-1.19.46-2.01.46s-1.46-.15-1.99-.46c-.55-.33-.99-.73-1.33-1.26-.33-.53-.6-1.17-.75-1.88-.15-.75-.24-1.53-.24-2.3s.09-1.59.22-2.34c.13-.73.4-1.37.73-1.9.33-.53.77-.97,1.3-1.3.53-.33,1.19-.49,2.01-.49s1.44.15,1.97.49c.55.33.99.77,1.35,1.33s.62,1.22.77,1.92c.15.75.24,1.53.24,2.3l-.02-.02Z"/>
          <path class="cls-1" d="M555.22,128.45c-.99-.99-2.21-1.79-3.58-2.34-1.39-.55-2.96-.82-4.64-.82s-3.25.29-4.62.82c-1.37.55-2.59,1.33-3.58,2.34-.99.99-1.77,2.23-2.3,3.65-.53,1.41-.8,3.01-.8,4.71s.27,3.29.8,4.69c.53,1.41,1.3,2.63,2.3,3.62.99.99,2.19,1.79,3.58,2.32,1.37.53,2.92.8,4.62.8s3.25-.27,4.64-.8,2.61-1.33,3.6-2.32c.99-.99,1.77-2.23,2.3-3.62.53-1.39.8-2.98.8-4.69s-.27-3.29-.8-4.71-1.3-2.65-2.3-3.65h-.02ZM549.07,142.31c-.55.31-1.26.46-2.1.46s-1.55-.15-2.08-.46c-.55-.33-.97-.75-1.33-1.28-.35-.55-.6-1.19-.73-1.9-.15-.73-.22-1.5-.22-2.3s.09-1.55.22-2.32c.15-.71.4-1.35.73-1.9.33-.53.77-.95,1.33-1.3.53-.33,1.24-.49,2.08-.49s1.55.15,2.1.49c.57.33,1.02.75,1.35,1.28.35.55.6,1.19.73,1.9.15.75.22,1.53.22,2.32s-.07,1.55-.22,2.3c-.15.71-.4,1.35-.73,1.9-.33.53-.77.95-1.33,1.28l-.02.02Z"/>
          <path class="cls-1" d="M586.18,131.65v-6.37h-4.16v-5.64h-6.94v22.79c0,1.15.2,2.08.6,2.81.4.75.95,1.33,1.66,1.72.66.38,1.44.64,2.3.77.82.13,1.68.18,2.59.18.57,0,1.15,0,1.75-.04.62-.02,1.17-.09,1.68-.18l.53-.09v-5.7l-.75.15c-.24.04-.51.09-.77.11-.27.02-.55.04-.86.04-1.08,0-1.39-.22-1.46-.29-.07-.07-.29-.38-.29-1.46v-8.84h4.16l-.02.02Z"/>
          <path class="cls-1" d="M573.45,125.29c-.77,0-2.34.11-3.07.35-.71.22-1.39.55-2.03.97s-1.19.93-1.7,1.53c0,0-.02.02-.04.04v-2.34h-6.65v21.9h6.94v-9.95c0-.88.09-1.7.27-2.45.15-.71.44-1.35.84-1.86.38-.51.86-.93,1.5-1.22.82-.4,1.95-.53,3.27-.4l.69.07v-6.65h0Z"/>
          <path class="cls-1" d="M461.21,129.29c-.88-1.22-2.06-2.21-3.43-2.92-1.39-.73-3.03-1.08-4.88-1.08-1.66,0-3.18.31-4.55.88-1.37.6-2.56,1.41-3.54,2.43-.99,1.04-1.75,2.25-2.3,3.67-.53,1.39-.8,2.92-.8,4.53s.27,3.23.77,4.62c.51,1.41,1.26,2.63,2.23,3.65.97,1.02,2.14,1.81,3.54,2.37,1.37.55,2.92.82,4.62.82,2.45,0,4.58-.57,6.32-1.7,1.39-.91,2.5-2.28,3.32-4.09l.4-.88h-6.72l-.18.15c-.11.09-.24.2-.38.29-.73.51-1.57.75-2.59.75-1.41,0-2.5-.35-3.23-1.06-.62-.6-1.02-1.59-1.15-2.92h14.81l.04-.6c.11-1.66-.02-3.27-.42-4.8-.4-1.53-1.04-2.92-1.92-4.13l.02.02ZM450.76,131.21c.51-.27,1.17-.4,1.97-.4,1.19,0,2.08.31,2.63.91.46.53.84,1.26,1.11,2.21h-7.71c.04-.18.09-.35.13-.55.13-.42.33-.84.64-1.22s.71-.71,1.24-.97v.02Z"/>
          <path class="cls-1" d="M509.31,142.53v-10.74c0-1.39-.33-2.52-.95-3.38-.62-.84-1.41-1.5-2.39-1.97-.93-.44-1.99-.75-3.09-.91-2.32-.31-4.58-.31-6.79.13-1.19.24-2.3.64-3.25,1.22-.99.57-1.81,1.35-2.43,2.32-.64.97-1.02,2.19-1.11,3.62l-.04.66h6.92l.07-.57c.09-.93.38-1.59.86-1.95.53-.4,1.28-.6,2.25-.6.46,0,.91.02,1.33.09.35.04.66.15.93.31.24.13.42.33.57.6.15.27.22.64.22,1.17.02.51-.15.71-.29.82-.29.24-.73.44-1.26.57-.6.15-1.3.27-2.1.35-.84.09-1.7.2-2.54.33-.86.13-1.75.33-2.61.55-.91.24-1.72.62-2.43,1.11-.73.51-1.33,1.19-1.79,2.03-.46.84-.71,1.92-.71,3.2,0,1.15.2,2.17.6,3.03.4.86.97,1.59,1.68,2.14.71.55,1.53.97,2.45,1.24.91.27,1.9.38,2.94.38,1.33,0,2.65-.2,3.93-.6.93-.29,1.79-.73,2.54-1.3.07.33.15.64.27.95l.13.42h6.21v-3.4c-.07-.69-.09-1.26-.09-1.83h-.04ZM502.37,138.08v1.04c0,.29-.02.71-.09,1.19-.07.44-.22.91-.46,1.35-.24.42-.62.8-1.13,1.11s-1.26.46-2.25.46c-.42,0-.82-.04-1.19-.11-.35-.07-.64-.18-.91-.33-.22-.13-.4-.33-.53-.57-.13-.24-.2-.57-.2-.97,0-.42.07-.77.2-1.02.15-.27.33-.49.55-.64.24-.18.55-.33.91-.44.38-.13.77-.22,1.17-.31.44-.09.88-.13,1.33-.2.46-.04.93-.13,1.35-.2.44-.09.86-.2,1.24-.33,0,0,.04,0,.07-.02h-.04Z"/>
          <path class="cls-1" d="M423.88,136.58l-6.28-15.45h-9.88v26.61h7.14v-14.5l6.01,14.5h5.68l6.01-14.68v14.68h7.14v-26.61h-9.88l-5.92,15.45h-.02Z"/>
          <path class="cls-1" d="M366.68,129.04v7.69l3.89,3.89,3.87-3.87v-7.71l-3.89-3.89-3.89,3.89h.02Z"/>
          <path class="cls-1" d="M370.59,105.64c-15.91,0-28.8,12.89-28.8,28.8s12.89,28.8,28.8,28.8,28.8-12.89,28.8-28.8-12.91-28.8-28.8-28.8ZM387.45,153.76l-3.03,2.23-3.03-2.23v-7.6l-3.89-3.89-3.89,3.89v7.6l-3.03,2.23-3.03-2.23v-7.6l-3.89-3.89-3.89,3.89v7.6l-3.03,2.23-3.03-2.23v-10.1l6.9-6.9v-10.21l6.92-6.92v-8.77l3.03-2.23,3.03,2.23v8.77l6.92,6.92v10.19l6.94,6.94v10.1-.02Z"/>
        </g>
        <g>
          <path d="M261.58,147.65v-15.65h-4.82v-2.7h4.82v-2.05c0-3.24,1.37-4.78,4.78-4.78h4.82v2.7h-4.64c-1.47,0-2.01.61-2.01,2.01v2.12h6.65v2.7h-6.65v15.65h-2.95Z"/>
          <path d="M288.48,129.3v2.88h-2.37c-4.28,0-5.54,3.27-5.54,6.19v6.58h5.36v2.7h-12.41v-2.7h4.1v-12.95h-4.1v-2.7h6.91l.11,3.09c.83-1.44,2.48-3.09,5.97-3.09h1.98Z"/>
          <path d="M289.63,138.47c0-5.58,3.74-9.39,9.1-9.39s9.1,3.81,9.1,9.39-3.74,9.39-9.1,9.39-9.1-3.81-9.1-9.39ZM304.81,138.47c0-3.92-2.45-6.76-6.08-6.76s-6.08,2.84-6.08,6.76,2.45,6.76,6.08,6.76,6.08-2.84,6.08-6.76Z"/>
          <path d="M333.74,135.81v11.83h-2.95v-11.73c0-2.45-1.15-4.06-3.42-4.06-2.41,0-3.81,1.83-3.81,4.24v11.55h-2.95v-11.73c0-2.27-.94-4.06-3.53-4.06-2.37,0-3.7,1.87-3.7,4.5v11.29h-2.95v-18.35h2.48l.25,1.94c.94-1.33,2.52-2.16,4.6-2.16,2.19,0,3.92,1.12,4.75,2.81,1.08-1.69,2.84-2.81,5.25-2.81,3.63,0,5.97,2.55,5.97,6.73Z"/>
        </g>
      </g>
    </g>
  </g>
</svg>